<svg width="141" height="52" viewBox="0 0 141 52" fill="none" xmlns="http://www.w3.org/2000/svg">
<path d="M17.328 51.896C12.272 51.896 8.21667 50.6057 5.162 48.025C2.10733 45.4443 0.58 41.5997 0.58 36.491C0.58 34.0683 1.054 31.83 2.002 29.776C3.00267 27.6693 4.71433 26.4053 7.137 25.984C6.87367 26.774 6.742 27.6693 6.742 28.67C6.742 30.3027 6.95267 32.146 7.374 34.2C7.848 36.2013 8.322 37.9393 8.796 39.414C9.53333 41.5207 10.534 43.3377 11.798 44.865C13.1147 46.3397 14.5103 47.4983 15.985 48.341C17.5123 49.131 18.8817 49.526 20.093 49.526C21.2517 49.526 22.1733 49.1837 22.858 48.499C23.5953 47.7617 23.964 46.5767 23.964 44.944C23.964 42.89 23.411 40.8887 22.305 38.94C21.199 36.9387 19.8823 34.9373 18.355 32.936C16.8277 30.9347 15.3793 28.9333 14.01 26.932C12.9567 25.2993 12.0613 23.6403 11.324 21.955C10.5867 20.217 10.218 18.4527 10.218 16.662C10.218 13.818 10.85 11.4217 12.114 9.473C13.378 7.47167 15.0633 5.97067 17.17 4.97C19.3293 3.91666 21.7257 3.39 24.359 3.39C25.5703 3.39 26.9133 3.469 28.388 3.627C29.8627 3.785 31.2583 4.12733 32.575 4.654L33.76 5.128C34.8133 3.60067 35.9983 2.521 37.315 1.889C38.6317 1.257 39.7903 0.940996 40.791 0.940996C41.581 0.940996 42.213 1.099 42.687 1.415C43.2137 1.67833 43.477 2.047 43.477 2.521C43.477 2.995 43.2137 3.469 42.687 3.943C40.633 5.89167 39.0267 7.735 37.868 9.473C36.7093 11.1583 35.6033 13.107 34.55 15.319C33.5493 17.4783 32.97 19.664 32.812 21.876C32.496 21.9813 32.2853 22.034 32.18 22.034C31.6007 22.034 31.1793 21.639 30.916 20.849C30.6527 20.0063 30.521 18.953 30.521 17.689C30.521 16.2143 30.679 14.608 30.995 12.87C31.311 11.0793 31.7323 9.49933 32.259 8.13C31.943 7.814 31.5217 7.55067 30.995 7.34C30.4683 7.07667 29.8627 6.945 29.178 6.945C27.914 6.945 26.7553 7.44533 25.702 8.446C24.6487 9.44666 23.7797 10.6843 23.095 12.159C22.463 13.581 22.147 14.9767 22.147 16.346C22.147 18.1367 22.542 19.9273 23.332 21.718C24.1747 23.5087 25.1753 25.273 26.334 27.011C27.5453 28.749 28.6777 30.487 29.731 32.225C30.679 33.8577 31.3637 35.4113 31.785 36.886C32.259 38.308 32.496 39.651 32.496 40.915C32.496 44.2857 31.1003 46.9717 28.309 48.973C25.5703 50.9217 21.91 51.896 17.328 51.896ZM75.5812 51.185C73.8959 51.185 72.4476 50.5267 71.2362 49.21C70.0249 47.8933 69.0242 46.2343 68.2342 44.233C67.4442 42.2317 66.7859 40.1513 66.2592 37.992C65.7852 35.8327 65.4166 33.884 65.1532 32.146C64.9426 30.3553 64.7846 29.065 64.6792 28.275L64.6002 28.038C64.0209 28.1433 63.4942 28.2223 63.0202 28.275C62.5462 28.275 62.1249 28.275 61.7562 28.275H61.2822C60.0182 30.803 58.8332 33.2783 57.7272 35.701C56.6739 38.1237 55.8049 40.362 55.1202 42.416C54.4882 44.47 54.1722 46.1817 54.1722 47.551C54.1722 48.6043 54.4092 49.4207 54.8832 50C54.9886 50.2107 55.0412 50.3687 55.0412 50.474C55.0412 50.632 54.9622 50.7373 54.8042 50.79C54.6462 50.8953 54.4356 50.869 54.1722 50.711C53.6982 50.5003 53.0926 50.3423 52.3552 50.237C51.6179 50.1317 50.9596 49.9737 50.3802 49.763C49.1689 49.3417 48.2736 48.6043 47.6942 47.551C47.1676 46.445 46.9042 45.1283 46.9042 43.601C46.9042 41.8103 47.1939 39.7827 47.7732 37.518C48.4052 35.2533 49.1952 32.936 50.1432 30.566C51.0912 28.1433 52.0919 25.826 53.1452 23.614C54.2512 21.402 55.2782 19.4007 56.2262 17.61C57.1742 15.8193 57.9379 14.3973 58.5172 13.344C58.6752 13.0807 58.9649 12.554 59.3862 11.764C59.8602 10.9213 60.3079 10.0787 60.7292 9.236C61.1506 8.34066 61.3612 7.656 61.3612 7.182C61.3612 6.65533 61.0716 6.55 60.4922 6.866C59.6496 7.23466 58.6489 7.94566 57.4902 8.999C56.3316 10.0523 55.0676 11.2373 53.6982 12.554C52.3289 13.818 50.9069 15.082 49.4322 16.346C47.9576 17.5573 46.4566 18.5843 44.9292 19.427C43.4019 20.217 41.8746 20.612 40.3472 20.612C39.5046 20.612 38.6882 20.454 37.8982 20.138C37.0029 19.822 36.5552 19.032 36.5552 17.768C36.5552 16.5567 36.8976 15.1347 37.5822 13.502C38.3196 11.8167 39.2149 10.2103 40.2682 8.683C40.5316 8.26167 40.8476 7.972 41.2162 7.814C41.5849 7.60333 41.8746 7.498 42.0852 7.498C42.5066 7.498 42.7172 7.68233 42.7172 8.051C42.7172 8.209 42.6382 8.41967 42.4802 8.683C42.4276 8.89366 42.3486 9.078 42.2432 9.236C42.1906 9.394 42.1642 9.52567 42.1642 9.631C42.1642 9.99967 42.3486 10.263 42.7172 10.421C43.0859 10.5263 43.4809 10.579 43.9022 10.579C45.0082 10.579 46.4566 10.2103 48.2472 9.473C50.0379 8.73567 51.9602 7.84033 54.0142 6.787C56.1209 5.681 58.2012 4.60133 60.2552 3.548C62.3619 2.49466 64.3106 1.67833 66.1012 1.099C67.8919 0.466997 69.3666 0.25633 70.5252 0.466997C71.2626 0.624998 71.9209 1.07267 72.5002 1.81C73.0796 2.54733 73.5536 3.28467 73.9222 4.022C74.0802 4.39066 74.1592 4.78566 74.1592 5.207C74.1592 5.73366 74.0276 6.234 73.7642 6.708C73.5536 7.182 73.2376 7.68233 72.8162 8.209C72.1316 9.20966 71.2362 10.6317 70.1302 12.475C69.0242 14.2657 67.7866 16.3197 66.4172 18.637C65.1006 20.9543 63.7839 23.377 62.4672 25.905C64.8899 25.431 67.0756 24.483 69.0242 23.061C70.9729 21.639 72.7109 19.98 74.2382 18.084C75.7656 16.188 77.1612 14.2657 78.4252 12.317C79.6892 10.3683 80.8742 8.604 81.9802 7.024C83.1389 5.444 84.2712 4.28533 85.3772 3.548C86.0619 3.02133 86.9046 2.758 87.9052 2.758C88.6952 2.758 89.4062 3.04766 90.0382 3.627C90.7229 4.15367 91.0652 5.02266 91.0652 6.234C91.0652 7.86667 90.5912 9.49933 89.6432 11.132C88.6952 12.712 87.4576 14.2657 85.9302 15.793C84.4029 17.2677 82.7439 18.6633 80.9532 19.98C79.2152 21.244 77.5036 22.3763 75.8182 23.377C74.1329 24.3777 72.6846 25.194 71.4732 25.826C71.5259 26.0893 71.8156 26.9583 72.3422 28.433C72.8689 29.9077 73.5536 31.6457 74.3962 33.647C75.2916 35.5957 76.2396 37.518 77.2402 39.414C78.2409 41.31 79.2416 42.8637 80.2422 44.075C81.2429 45.2337 82.1646 45.734 83.0072 45.576C83.2179 45.5233 83.1389 45.7867 82.7702 46.366C82.4542 46.8927 81.9276 47.551 81.1902 48.341C80.4529 49.0783 79.5839 49.7367 78.5832 50.316C77.6352 50.8953 76.6346 51.185 75.5812 51.185ZM124.648 51.185C122.962 51.185 121.514 50.5267 120.303 49.21C119.091 47.8933 118.091 46.2343 117.301 44.233C116.511 42.2317 115.852 40.1513 115.326 37.992C114.852 35.8327 114.483 33.884 114.22 32.146C114.009 30.3553 113.851 29.065 113.746 28.275L113.667 28.038C113.087 28.1433 112.561 28.2223 112.087 28.275C111.613 28.275 111.191 28.275 110.823 28.275H110.349C109.085 30.803 107.9 33.2783 106.794 35.701C105.74 38.1237 104.871 40.362 104.187 42.416C103.555 44.47 103.239 46.1817 103.239 47.551C103.239 48.6043 103.476 49.4207 103.95 50C104.055 50.2107 104.108 50.3687 104.108 50.474C104.108 50.632 104.029 50.7373 103.871 50.79C103.713 50.8953 103.502 50.869 103.239 50.711C102.765 50.5003 102.159 50.3423 101.422 50.237C100.684 50.1317 100.026 49.9737 99.4466 49.763C98.2353 49.3417 97.34 48.6043 96.7606 47.551C96.234 46.445 95.9706 45.1283 95.9706 43.601C95.9706 41.8103 96.2603 39.7827 96.8396 37.518C97.4716 35.2533 98.2616 32.936 99.2096 30.566C100.158 28.1433 101.158 25.826 102.212 23.614C103.318 21.402 104.345 19.4007 105.293 17.61C106.241 15.8193 107.004 14.3973 107.584 13.344C107.742 13.0807 108.031 12.554 108.453 11.764C108.927 10.9213 109.374 10.0787 109.796 9.236C110.217 8.34066 110.428 7.656 110.428 7.182C110.428 6.65533 110.138 6.55 109.559 6.866C108.716 7.23466 107.715 7.94566 106.557 8.999C105.398 10.0523 104.134 11.2373 102.765 12.554C101.395 13.818 99.9733 15.082 98.4986 16.346C97.024 17.5573 95.523 18.5843 93.9956 19.427C92.4683 20.217 90.941 20.612 89.4136 20.612C88.571 20.612 87.7546 20.454 86.9646 20.138C86.0693 19.822 85.6216 19.032 85.6216 17.768C85.6216 16.5567 85.964 15.1347 86.6486 13.502C87.386 11.8167 88.2813 10.2103 89.3346 8.683C89.598 8.26167 89.914 7.972 90.2826 7.814C90.6513 7.60333 90.941 7.498 91.1516 7.498C91.573 7.498 91.7836 7.68233 91.7836 8.051C91.7836 8.209 91.7046 8.41967 91.5466 8.683C91.494 8.89366 91.415 9.078 91.3096 9.236C91.257 9.394 91.2306 9.52567 91.2306 9.631C91.2306 9.99967 91.415 10.263 91.7836 10.421C92.1523 10.5263 92.5473 10.579 92.9686 10.579C94.0746 10.579 95.523 10.2103 97.3136 9.473C99.1043 8.73567 101.027 7.84033 103.081 6.787C105.187 5.681 107.268 4.60133 109.322 3.548C111.428 2.49466 113.377 1.67833 115.168 1.099C116.958 0.466997 118.433 0.25633 119.592 0.466997C120.329 0.624998 120.987 1.07267 121.567 1.81C122.146 2.54733 122.62 3.28467 122.989 4.022C123.147 4.39066 123.226 4.78566 123.226 5.207C123.226 5.73366 123.094 6.234 122.831 6.708C122.62 7.182 122.304 7.68233 121.883 8.209C121.198 9.20966 120.303 10.6317 119.197 12.475C118.091 14.2657 116.853 16.3197 115.484 18.637C114.167 20.9543 112.85 23.377 111.534 25.905C113.956 25.431 116.142 24.483 118.091 23.061C120.039 21.639 121.777 19.98 123.305 18.084C124.832 16.188 126.228 14.2657 127.492 12.317C128.756 10.3683 129.941 8.604 131.047 7.024C132.205 5.444 133.338 4.28533 134.444 3.548C135.128 3.02133 135.971 2.758 136.972 2.758C137.762 2.758 138.473 3.04766 139.105 3.627C139.789 4.15367 140.132 5.02266 140.132 6.234C140.132 7.86667 139.658 9.49933 138.71 11.132C137.762 12.712 136.524 14.2657 134.997 15.793C133.469 17.2677 131.81 18.6633 130.02 19.98C128.282 21.244 126.57 22.3763 124.885 23.377C123.199 24.3777 121.751 25.194 120.54 25.826C120.592 26.0893 120.882 26.9583 121.409 28.433C121.935 29.9077 122.62 31.6457 123.463 33.647C124.358 35.5957 125.306 37.518 126.307 39.414C127.307 41.31 128.308 42.8637 129.309 44.075C130.309 45.2337 131.231 45.734 132.074 45.576C132.284 45.5233 132.205 45.7867 131.837 46.366C131.521 46.8927 130.994 47.551 130.257 48.341C129.519 49.0783 128.65 49.7367 127.65 50.316C126.702 50.8953 125.701 51.185 124.648 51.185Z" fill="white"/>
</svg>
